<svg width="1024" height="753" viewBox="0 0 1024 753" fill="none" xmlns="http://www.w3.org/2000/svg">
<g clip-path="url(#clip0_122_130)">
<rect width="1024" height="753" fill="#121214"/>
<g opacity="0.2" filter="url(#filter0_f_122_130)">
<ellipse cx="514.5" cy="34" rx="670.5" ry="350" fill="#338AF3"/>
</g>
<path d="M35.0349 270C36.5302 270 37.6622 270.63 38.4308 271.891C39.2134 273.138 39.6047 274.953 39.6047 277.336C39.6047 279.719 39.2134 281.541 38.4308 282.802C37.6622 284.063 36.5302 284.693 35.0349 284.693C33.5536 284.693 32.4216 284.063 31.639 282.802C30.8564 281.541 30.4651 279.719 30.4651 277.336C30.4651 274.967 30.8564 273.152 31.639 271.891C32.4216 270.63 33.5536 270 35.0349 270ZM31.9534 277.336C31.9534 279.026 32.1072 280.35 32.4146 281.306L37.0683 272.099C36.5791 271.448 35.9013 271.122 35.0349 271.122C34.0706 271.122 33.316 271.635 32.771 272.66C32.2259 273.672 31.9534 275.23 31.9534 277.336ZM35.0349 283.55C36.0131 283.55 36.7748 283.044 37.3198 282.033C37.8648 281.008 38.1373 279.442 38.1373 277.336C38.1373 275.549 37.9627 274.163 37.6133 273.18L32.9596 282.469C33.4627 283.19 34.1545 283.55 35.0349 283.55Z" fill="url(#paint0_linear_122_130)" fill-opacity="0.6"/>
<path d="M36.2926 307.135H39.3741V308.236H31.3874V307.135H34.9511V295.455L31.5551 297.471L30.9682 296.536L35.1607 293.959H36.2926V307.135Z" fill="url(#paint1_linear_122_130)" fill-opacity="0.6"/>
<path d="M35.0349 317.502C36.5302 317.502 37.6622 318.133 38.4308 319.393C39.2134 320.64 39.6047 322.455 39.6047 324.838C39.6047 327.221 39.2134 329.043 38.4308 330.304C37.6622 331.565 36.5302 332.195 35.0349 332.195C33.5536 332.195 32.4216 331.565 31.639 330.304C30.8564 329.043 30.4651 327.221 30.4651 324.838C30.4651 322.469 30.8564 320.654 31.639 319.393C32.4216 318.133 33.5536 317.502 35.0349 317.502ZM31.9534 324.838C31.9534 326.529 32.1072 327.852 32.4146 328.808L37.0683 319.601C36.5791 318.95 35.9013 318.624 35.0349 318.624C34.0706 318.624 33.316 319.137 32.771 320.162C32.2259 321.174 31.9534 322.732 31.9534 324.838ZM35.0349 331.052C36.0131 331.052 36.7748 330.546 37.3198 329.535C37.8648 328.51 38.1373 326.944 38.1373 324.838C38.1373 323.051 37.9627 321.665 37.6133 320.682L32.9596 329.971C33.4627 330.692 34.1545 331.052 35.0349 331.052Z" fill="url(#paint2_linear_122_130)" fill-opacity="0.6"/>
<path d="M36.2926 354.637H39.3741V355.738H31.3874V354.637H34.9511V342.957L31.5551 344.973L30.9682 344.038L35.1607 341.461H36.2926V354.637Z" fill="url(#paint3_linear_122_130)" fill-opacity="0.6"/>
<path d="M36.2926 378.388H39.3741V379.489H31.3874V378.388H34.9511V366.708L31.5551 368.724L30.9682 367.789L35.1607 365.212H36.2926V378.388Z" fill="url(#paint4_linear_122_130)" fill-opacity="0.6"/>
<path d="M35.0349 388.755C36.5302 388.755 37.6622 389.386 38.4308 390.646C39.2134 391.893 39.6047 393.708 39.6047 396.091C39.6047 398.474 39.2134 400.296 38.4308 401.557C37.6622 402.818 36.5302 403.448 35.0349 403.448C33.5536 403.448 32.4216 402.818 31.639 401.557C30.8564 400.296 30.4651 398.474 30.4651 396.091C30.4651 393.722 30.8564 391.907 31.639 390.646C32.4216 389.386 33.5536 388.755 35.0349 388.755ZM31.9534 396.091C31.9534 397.782 32.1072 399.105 32.4146 400.061L37.0683 390.854C36.5791 390.203 35.9013 389.878 35.0349 389.878C34.0706 389.878 33.316 390.39 32.771 391.415C32.2259 392.427 31.9534 393.985 31.9534 396.091ZM35.0349 402.305C36.0131 402.305 36.7748 401.8 37.3198 400.788C37.8648 399.763 38.1373 398.197 38.1373 396.091C38.1373 394.304 37.9627 392.919 37.6133 391.935L32.9596 401.225C33.4627 401.945 34.1545 402.305 35.0349 402.305Z" fill="url(#paint5_linear_122_130)" fill-opacity="0.6"/>
<path d="M36.2926 425.89H39.3741V426.992H31.3874V425.89H34.9511V414.21L31.5551 416.226L30.9682 415.291L35.1607 412.714H36.2926V425.89Z" fill="url(#paint6_linear_122_130)" fill-opacity="0.6"/>
<path d="M35.0349 436.257C36.5302 436.257 37.6622 436.888 38.4308 438.149C39.2134 439.396 39.6047 441.211 39.6047 443.594C39.6047 445.977 39.2134 447.798 38.4308 449.059C37.6622 450.32 36.5302 450.95 35.0349 450.95C33.5536 450.95 32.4216 450.32 31.639 449.059C30.8564 447.798 30.4651 445.977 30.4651 443.594C30.4651 441.224 30.8564 439.409 31.639 438.149C32.4216 436.888 33.5536 436.257 35.0349 436.257ZM31.9534 443.594C31.9534 445.284 32.1072 446.607 32.4146 447.563L37.0683 438.356C36.5791 437.705 35.9013 437.38 35.0349 437.38C34.0706 437.38 33.316 437.892 32.771 438.918C32.2259 439.929 31.9534 441.488 31.9534 443.594ZM35.0349 449.807C36.0131 449.807 36.7748 449.302 37.3198 448.29C37.8648 447.265 38.1373 445.699 38.1373 443.594C38.1373 441.806 37.9627 440.421 37.6133 439.437L32.9596 448.727C33.4627 449.447 34.1545 449.807 35.0349 449.807Z" fill="url(#paint7_linear_122_130)" fill-opacity="0.6"/>
<path d="M35.0349 460.008C36.5302 460.008 37.6622 460.639 38.4308 461.9C39.2134 463.147 39.6047 464.962 39.6047 467.345C39.6047 469.728 39.2134 471.549 38.4308 472.81C37.6622 474.071 36.5302 474.701 35.0349 474.701C33.5536 474.701 32.4216 474.071 31.639 472.81C30.8564 471.549 30.4651 469.728 30.4651 467.345C30.4651 464.975 30.8564 463.16 31.639 461.9C32.4216 460.639 33.5536 460.008 35.0349 460.008ZM31.9534 467.345C31.9534 469.035 32.1072 470.358 32.4146 471.314L37.0683 462.107C36.5791 461.456 35.9013 461.131 35.0349 461.131C34.0706 461.131 33.316 461.643 32.771 462.669C32.2259 463.68 31.9534 465.239 31.9534 467.345ZM35.0349 473.558C36.0131 473.558 36.7748 473.053 37.3198 472.041C37.8648 471.016 38.1373 469.451 38.1373 467.345C38.1373 465.557 37.9627 464.172 37.6133 463.188L32.9596 472.478C33.4627 473.198 34.1545 473.558 35.0349 473.558Z" fill="url(#paint8_linear_122_130)" fill-opacity="0.6"/>
<path d="M36.2926 497.143H39.3741V498.245H31.3874V497.143H34.9511V485.464L31.5551 487.48L30.9682 486.544L35.1607 483.967H36.2926V497.143Z" fill="url(#paint9_linear_122_130)" fill-opacity="0.6"/>
<path d="M35.0349 507.511C36.5302 507.511 37.6622 508.141 38.4308 509.402C39.2134 510.649 39.6047 512.464 39.6047 514.847C39.6047 517.23 39.2134 519.052 38.4308 520.312C37.6622 521.573 36.5302 522.204 35.0349 522.204C33.5536 522.204 32.4216 521.573 31.639 520.312C30.8564 519.052 30.4651 517.23 30.4651 514.847C30.4651 512.478 30.8564 510.663 31.639 509.402C32.4216 508.141 33.5536 507.511 35.0349 507.511ZM31.9534 514.847C31.9534 516.537 32.1072 517.86 32.4146 518.816L37.0683 509.61C36.5791 508.958 35.9013 508.633 35.0349 508.633C34.0706 508.633 33.316 509.145 32.771 510.171C32.2259 511.182 31.9534 512.741 31.9534 514.847ZM35.0349 521.061C36.0131 521.061 36.7748 520.555 37.3198 519.543C37.8648 518.518 38.1373 516.953 38.1373 514.847C38.1373 513.059 37.9627 511.674 37.6133 510.69L32.9596 519.98C33.4627 520.7 34.1545 521.061 35.0349 521.061Z" fill="url(#paint10_linear_122_130)" fill-opacity="0.6"/>
<path d="M36.2926 544.645H39.3741V545.747H31.3874V544.645H34.9511V532.966L31.5551 534.982L30.9682 534.046L35.1607 531.469H36.2926V544.645Z" fill="url(#paint11_linear_122_130)" fill-opacity="0.6"/>
<path d="M36.2926 568.396H39.3741V569.498H31.3874V568.396H34.9511V556.717L31.5551 558.733L30.9682 557.798L35.1607 555.221H36.2926V568.396Z" fill="url(#paint12_linear_122_130)" fill-opacity="0.6"/>
<path d="M73.9651 317.502C75.4604 317.502 76.5924 318.133 77.361 319.393C78.1436 320.64 78.5349 322.455 78.5349 324.838C78.5349 327.221 78.1436 329.043 77.361 330.304C76.5924 331.565 75.4604 332.195 73.9651 332.195C72.4838 332.195 71.3518 331.565 70.5692 330.304C69.7866 329.043 69.3953 327.221 69.3953 324.838C69.3953 322.469 69.7866 320.654 70.5692 319.393C71.3518 318.133 72.4838 317.502 73.9651 317.502ZM70.8836 324.838C70.8836 326.529 71.0374 327.852 71.3448 328.808L75.9985 319.601C75.5093 318.95 74.8315 318.624 73.9651 318.624C73.0008 318.624 72.2462 319.137 71.7012 320.162C71.1561 321.174 70.8836 322.732 70.8836 324.838ZM73.9651 331.052C74.9433 331.052 75.705 330.546 76.25 329.535C76.795 328.51 77.0675 326.944 77.0675 324.838C77.0675 323.051 76.8928 321.665 76.5435 320.682L71.8898 329.971C72.3929 330.692 73.0847 331.052 73.9651 331.052Z" fill="url(#paint13_linear_122_130)" fill-opacity="0.6"/>
<path d="M75.2228 354.637H78.3043V355.738H70.3176V354.637H73.8812V342.957L70.4853 344.973L69.8984 344.038L74.0909 341.461H75.2228V354.637Z" fill="url(#paint14_linear_122_130)" fill-opacity="0.6"/>
<path d="M73.9651 365.004C75.4604 365.004 76.5924 365.635 77.361 366.895C78.1436 368.142 78.5349 369.957 78.5349 372.34C78.5349 374.723 78.1436 376.545 77.361 377.806C76.5924 379.067 75.4604 379.697 73.9651 379.697C72.4838 379.697 71.3518 379.067 70.5692 377.806C69.7866 376.545 69.3953 374.723 69.3953 372.34C69.3953 369.971 69.7866 368.156 70.5692 366.895C71.3518 365.635 72.4838 365.004 73.9651 365.004ZM70.8836 372.34C70.8836 374.031 71.0374 375.354 71.3448 376.31L75.9985 367.103C75.5093 366.452 74.8315 366.126 73.9651 366.126C73.0008 366.126 72.2462 366.639 71.7012 367.664C71.1561 368.676 70.8836 370.234 70.8836 372.34ZM73.9651 378.554C74.9433 378.554 75.705 378.049 76.25 377.037C76.795 376.012 77.0675 374.446 77.0675 372.34C77.0675 370.553 76.8928 369.168 76.5435 368.184L71.8898 377.474C72.3929 378.194 73.0847 378.554 73.9651 378.554Z" fill="url(#paint15_linear_122_130)" fill-opacity="0.6"/>
<path d="M73.9651 388.755C75.4604 388.755 76.5924 389.386 77.361 390.646C78.1436 391.893 78.5349 393.708 78.5349 396.091C78.5349 398.474 78.1436 400.296 77.361 401.557C76.5924 402.818 75.4604 403.448 73.9651 403.448C72.4838 403.448 71.3518 402.818 70.5692 401.557C69.7866 400.296 69.3953 398.474 69.3953 396.091C69.3953 393.722 69.7866 391.907 70.5692 390.646C71.3518 389.386 72.4838 388.755 73.9651 388.755ZM70.8836 396.091C70.8836 397.782 71.0374 399.105 71.3448 400.061L75.9985 390.854C75.5093 390.203 74.8315 389.878 73.9651 389.878C73.0008 389.878 72.2462 390.39 71.7012 391.415C71.1561 392.427 70.8836 393.985 70.8836 396.091ZM73.9651 402.305C74.9433 402.305 75.705 401.8 76.25 400.788C76.795 399.763 77.0675 398.197 77.0675 396.091C77.0675 394.304 76.8928 392.919 76.5435 391.935L71.8898 401.225C72.3929 401.945 73.0847 402.305 73.9651 402.305Z" fill="url(#paint16_linear_122_130)" fill-opacity="0.6"/>
<path d="M75.2228 425.89H78.3043V426.992H70.3176V425.89H73.8812V414.21L70.4853 416.226L69.8984 415.291L74.0909 412.714H75.2228V425.89Z" fill="url(#paint17_linear_122_130)" fill-opacity="0.6"/>
<path d="M73.9651 436.257C75.4604 436.257 76.5924 436.888 77.361 438.149C78.1436 439.396 78.5349 441.211 78.5349 443.594C78.5349 445.977 78.1436 447.798 77.361 449.059C76.5924 450.32 75.4604 450.95 73.9651 450.95C72.4838 450.95 71.3518 450.32 70.5692 449.059C69.7866 447.798 69.3953 445.977 69.3953 443.594C69.3953 441.224 69.7866 439.409 70.5692 438.149C71.3518 436.888 72.4838 436.257 73.9651 436.257ZM70.8836 443.594C70.8836 445.284 71.0374 446.607 71.3448 447.563L75.9985 438.356C75.5093 437.705 74.8315 437.38 73.9651 437.38C73.0008 437.38 72.2462 437.892 71.7012 438.918C71.1561 439.929 70.8836 441.488 70.8836 443.594ZM73.9651 449.807C74.9433 449.807 75.705 449.302 76.25 448.29C76.795 447.265 77.0675 445.699 77.0675 443.594C77.0675 441.806 76.8928 440.421 76.5435 439.437L71.8898 448.727C72.3929 449.447 73.0847 449.807 73.9651 449.807Z" fill="url(#paint18_linear_122_130)" fill-opacity="0.6"/>
<path d="M75.2228 473.392H78.3043V474.494H70.3176V473.392H73.8812V461.713L70.4853 463.728L69.8984 462.793L74.0909 460.216H75.2228V473.392Z" fill="url(#paint19_linear_122_130)" fill-opacity="0.6"/>
<path d="M73.9651 483.76C75.4604 483.76 76.5924 484.39 77.361 485.651C78.1436 486.898 78.5349 488.713 78.5349 491.096C78.5349 493.479 78.1436 495.301 77.361 496.561C76.5924 497.822 75.4604 498.453 73.9651 498.453C72.4838 498.453 71.3518 497.822 70.5692 496.561C69.7866 495.301 69.3953 493.479 69.3953 491.096C69.3953 488.726 69.7866 486.911 70.5692 485.651C71.3518 484.39 72.4838 483.76 73.9651 483.76ZM70.8836 491.096C70.8836 492.786 71.0374 494.109 71.3448 495.065L75.9985 485.859C75.5093 485.207 74.8315 484.882 73.9651 484.882C73.0008 484.882 72.2462 485.394 71.7012 486.42C71.1561 487.431 70.8836 488.99 70.8836 491.096ZM73.9651 497.31C74.9433 497.31 75.705 496.804 76.25 495.792C76.795 494.767 77.0675 493.202 77.0675 491.096C77.0675 489.308 76.8928 487.923 76.5435 486.939L71.8898 496.229C72.3929 496.949 73.0847 497.31 73.9651 497.31Z" fill="url(#paint20_linear_122_130)" fill-opacity="0.6"/>
<path d="M73.9651 507.511C75.4604 507.511 76.5924 508.141 77.361 509.402C78.1436 510.649 78.5349 512.464 78.5349 514.847C78.5349 517.23 78.1436 519.052 77.361 520.312C76.5924 521.573 75.4604 522.204 73.9651 522.204C72.4838 522.204 71.3518 521.573 70.5692 520.312C69.7866 519.052 69.3953 517.23 69.3953 514.847C69.3953 512.478 69.7866 510.663 70.5692 509.402C71.3518 508.141 72.4838 507.511 73.9651 507.511ZM70.8836 514.847C70.8836 516.537 71.0374 517.86 71.3448 518.816L75.9985 509.61C75.5093 508.958 74.8315 508.633 73.9651 508.633C73.0008 508.633 72.2462 509.145 71.7012 510.171C71.1561 511.182 70.8836 512.741 70.8836 514.847ZM73.9651 521.061C74.9433 521.061 75.705 520.555 76.25 519.543C76.795 518.518 77.0675 516.953 77.0675 514.847C77.0675 513.059 76.8928 511.674 76.5435 510.69L71.8898 519.98C72.3929 520.7 73.0847 521.061 73.9651 521.061Z" fill="url(#paint21_linear_122_130)" fill-opacity="0.6"/>
<path d="M75.2228 544.645H78.3043V545.747H70.3176V544.645H73.8812V532.966L70.4853 534.982L69.8984 534.046L74.0909 531.469H75.2228V544.645Z" fill="url(#paint22_linear_122_130)" fill-opacity="0.6"/>
<path d="M73.9651 555.013C75.4604 555.013 76.5924 555.643 77.361 556.904C78.1436 558.151 78.5349 559.966 78.5349 562.349C78.5349 564.732 78.1436 566.554 77.361 567.815C76.5924 569.075 75.4604 569.706 73.9651 569.706C72.4838 569.706 71.3518 569.075 70.5692 567.815C69.7866 566.554 69.3953 564.732 69.3953 562.349C69.3953 559.98 69.7866 558.165 70.5692 556.904C71.3518 555.643 72.4838 555.013 73.9651 555.013ZM70.8836 562.349C70.8836 564.039 71.0374 565.362 71.3448 566.318L75.9985 557.112C75.5093 556.461 74.8315 556.135 73.9651 556.135C73.0008 556.135 72.2462 556.648 71.7012 557.673C71.1561 558.684 70.8836 560.243 70.8836 562.349ZM73.9651 568.563C74.9433 568.563 75.705 568.057 76.25 567.046C76.795 566.02 77.0675 564.455 77.0675 562.349C77.0675 560.562 76.8928 559.176 76.5435 558.192L71.8898 567.482C72.3929 568.202 73.0847 568.563 73.9651 568.563Z" fill="url(#paint23_linear_122_130)" fill-opacity="0.6"/>
<path d="M75.2228 592.147H78.3043V593.249H70.3176V592.147H73.8812V580.468L70.4853 582.484L69.8984 581.549L74.0909 578.972H75.2228V592.147Z" fill="url(#paint24_linear_122_130)" fill-opacity="0.6"/>
<path d="M75.2228 615.899H78.3043V617H70.3176V615.899H73.8812V604.219L70.4853 606.235L69.8984 605.3L74.0909 602.723H75.2228V615.899Z" fill="url(#paint25_linear_122_130)" fill-opacity="0.6"/>
<path d="M15.5698 341.253C17.0651 341.253 18.1971 341.884 18.9657 343.144C19.7483 344.391 20.1396 346.206 20.1396 348.589C20.1396 350.972 19.7483 352.794 18.9657 354.055C18.1971 355.316 17.0651 355.946 15.5698 355.946C14.0885 355.946 12.9565 355.316 12.1739 354.055C11.3913 352.794 11 350.972 11 348.589C11 346.22 11.3913 344.405 12.1739 343.144C12.9565 341.884 14.0885 341.253 15.5698 341.253ZM12.4883 348.589C12.4883 350.28 12.6421 351.603 12.9495 352.559L17.6032 343.352C17.114 342.701 16.4363 342.375 15.5698 342.375C14.6055 342.375 13.8509 342.888 13.3059 343.913C12.7608 344.925 12.4883 346.483 12.4883 348.589ZM15.5698 354.803C16.5481 354.803 17.3097 354.297 17.8547 353.286C18.3997 352.261 18.6722 350.695 18.6722 348.589C18.6722 346.802 18.4976 345.417 18.1482 344.433L13.4945 353.722C13.9976 354.443 14.6894 354.803 15.5698 354.803Z" fill="url(#paint26_linear_122_130)" fill-opacity="0.6"/>
<path d="M15.5698 365.004C17.0651 365.004 18.1971 365.635 18.9657 366.895C19.7483 368.142 20.1396 369.957 20.1396 372.34C20.1396 374.723 19.7483 376.545 18.9657 377.806C18.1971 379.067 17.0651 379.697 15.5698 379.697C14.0885 379.697 12.9565 379.067 12.1739 377.806C11.3913 376.545 11 374.723 11 372.34C11 369.971 11.3913 368.156 12.1739 366.895C12.9565 365.635 14.0885 365.004 15.5698 365.004ZM12.4883 372.34C12.4883 374.031 12.6421 375.354 12.9495 376.31L17.6032 367.103C17.114 366.452 16.4363 366.126 15.5698 366.126C14.6055 366.126 13.8509 366.639 13.3059 367.664C12.7608 368.676 12.4883 370.234 12.4883 372.34ZM15.5698 378.554C16.5481 378.554 17.3097 378.049 17.8547 377.037C18.3997 376.012 18.6722 374.446 18.6722 372.34C18.6722 370.553 18.4976 369.168 18.1482 368.184L13.4945 377.474C13.9976 378.194 14.6894 378.554 15.5698 378.554Z" fill="url(#paint27_linear_122_130)" fill-opacity="0.6"/>
<path d="M16.8276 402.139H19.909V403.24H11.9223V402.139H15.486V390.459L12.09 392.475L11.5031 391.54L15.6956 388.963H16.8276V402.139Z" fill="url(#paint28_linear_122_130)" fill-opacity="0.6"/>
<path d="M15.5698 412.506C17.0651 412.506 18.1971 413.137 18.9657 414.398C19.7483 415.644 20.1396 417.459 20.1396 419.842C20.1396 422.225 19.7483 424.047 18.9657 425.308C18.1971 426.569 17.0651 427.199 15.5698 427.199C14.0885 427.199 12.9565 426.569 12.1739 425.308C11.3913 424.047 11 422.225 11 419.842C11 417.473 11.3913 415.658 12.1739 414.398C12.9565 413.137 14.0885 412.506 15.5698 412.506ZM12.4883 419.842C12.4883 421.533 12.6421 422.856 12.9495 423.812L17.6032 414.605C17.114 413.954 16.4363 413.629 15.5698 413.629C14.6055 413.629 13.8509 414.141 13.3059 415.166C12.7608 416.178 12.4883 417.737 12.4883 419.842ZM15.5698 426.056C16.5481 426.056 17.3097 425.551 17.8547 424.539C18.3997 423.514 18.6722 421.948 18.6722 419.842C18.6722 418.055 18.4976 416.67 18.1482 415.686L13.4945 424.976C13.9976 425.696 14.6894 426.056 15.5698 426.056Z" fill="url(#paint29_linear_122_130)" fill-opacity="0.6"/>
<path d="M16.8276 449.641H19.909V450.743H11.9223V449.641H15.486V437.962L12.09 439.977L11.5031 439.042L15.6956 436.465H16.8276V449.641Z" fill="url(#paint30_linear_122_130)" fill-opacity="0.6"/>
<path d="M16.8276 473.392H19.909V474.494H11.9223V473.392H15.486V461.713L12.09 463.728L11.5031 462.793L15.6956 460.216H16.8276V473.392Z" fill="url(#paint31_linear_122_130)" fill-opacity="0.6"/>
<path d="M55.7577 307.135H58.8392V308.236H50.8525V307.135H54.4162V295.455L51.0202 297.471L50.4333 296.536L54.6258 293.959H55.7577V307.135Z" fill="url(#paint32_linear_122_130)" fill-opacity="0.6"/>
<path d="M54.5 317.502C55.9953 317.502 57.1273 318.133 57.8959 319.393C58.6785 320.64 59.0698 322.455 59.0698 324.838C59.0698 327.221 58.6785 329.043 57.8959 330.304C57.1273 331.565 55.9953 332.195 54.5 332.195C53.0187 332.195 51.8867 331.565 51.1041 330.304C50.3215 329.043 49.9302 327.221 49.9302 324.838C49.9302 322.469 50.3215 320.654 51.1041 319.393C51.8867 318.133 53.0187 317.502 54.5 317.502ZM51.4185 324.838C51.4185 326.529 51.5723 327.852 51.8797 328.808L56.5334 319.601C56.0442 318.95 55.3664 318.624 54.5 318.624C53.5357 318.624 52.7811 319.137 52.2361 320.162C51.691 321.174 51.4185 322.732 51.4185 324.838ZM54.5 331.052C55.4782 331.052 56.2399 330.546 56.7849 329.535C57.3299 328.51 57.6024 326.944 57.6024 324.838C57.6024 323.051 57.4277 321.665 57.0784 320.682L52.4247 329.971C52.9278 330.692 53.6196 331.052 54.5 331.052Z" fill="url(#paint33_linear_122_130)" fill-opacity="0.6"/>
<path d="M55.7577 354.637H58.8392V355.738H50.8525V354.637H54.4162V342.957L51.0202 344.973L50.4333 344.038L54.6258 341.461H55.7577V354.637Z" fill="url(#paint34_linear_122_130)" fill-opacity="0.6"/>
<path d="M55.7577 378.388H58.8392V379.489H50.8525V378.388H54.4162V366.708L51.0202 368.724L50.4333 367.789L54.6258 365.212H55.7577V378.388Z" fill="url(#paint35_linear_122_130)" fill-opacity="0.6"/>
<path d="M54.5 388.755C55.9953 388.755 57.1273 389.386 57.8959 390.646C58.6785 391.893 59.0698 393.708 59.0698 396.091C59.0698 398.474 58.6785 400.296 57.8959 401.557C57.1273 402.818 55.9953 403.448 54.5 403.448C53.0187 403.448 51.8867 402.818 51.1041 401.557C50.3215 400.296 49.9302 398.474 49.9302 396.091C49.9302 393.722 50.3215 391.907 51.1041 390.646C51.8867 389.386 53.0187 388.755 54.5 388.755ZM51.4185 396.091C51.4185 397.782 51.5723 399.105 51.8797 400.061L56.5334 390.854C56.0442 390.203 55.3664 389.878 54.5 389.878C53.5357 389.878 52.7811 390.39 52.2361 391.415C51.691 392.427 51.4185 393.985 51.4185 396.091ZM54.5 402.305C55.4782 402.305 56.2399 401.8 56.7849 400.788C57.3299 399.763 57.6024 398.197 57.6024 396.091C57.6024 394.304 57.4277 392.919 57.0784 391.935L52.4247 401.225C52.9278 401.945 53.6196 402.305 54.5 402.305Z" fill="url(#paint36_linear_122_130)" fill-opacity="0.6"/>
<path d="M55.7577 425.89H58.8392V426.992H50.8525V425.89H54.4162V414.21L51.0202 416.226L50.4333 415.291L54.6258 412.714H55.7577V425.89Z" fill="url(#paint37_linear_122_130)" fill-opacity="0.6"/>
<path d="M55.7577 449.641H58.8392V450.743H50.8525V449.641H54.4162V437.962L51.0202 439.977L50.4333 439.042L54.6258 436.465H55.7577V449.641Z" fill="url(#paint38_linear_122_130)" fill-opacity="0.6"/>
<path d="M54.5 460.008C55.9953 460.008 57.1273 460.639 57.8959 461.9C58.6785 463.147 59.0698 464.962 59.0698 467.345C59.0698 469.728 58.6785 471.549 57.8959 472.81C57.1273 474.071 55.9953 474.701 54.5 474.701C53.0187 474.701 51.8867 474.071 51.1041 472.81C50.3215 471.549 49.9302 469.728 49.9302 467.345C49.9302 464.975 50.3215 463.16 51.1041 461.9C51.8867 460.639 53.0187 460.008 54.5 460.008ZM51.4185 467.345C51.4185 469.035 51.5723 470.358 51.8797 471.314L56.5334 462.107C56.0442 461.456 55.3664 461.131 54.5 461.131C53.5357 461.131 52.7811 461.643 52.2361 462.669C51.691 463.68 51.4185 465.239 51.4185 467.345ZM54.5 473.558C55.4782 473.558 56.2399 473.053 56.7849 472.041C57.3299 471.016 57.6024 469.451 57.6024 467.345C57.6024 465.557 57.4277 464.172 57.0784 463.188L52.4247 472.478C52.9278 473.198 53.6196 473.558 54.5 473.558Z" fill="url(#paint39_linear_122_130)" fill-opacity="0.6"/>
<path d="M55.7577 497.143H58.8392V498.245H50.8525V497.143H54.4162V485.464L51.0202 487.48L50.4333 486.544L54.6258 483.967H55.7577V497.143Z" fill="url(#paint40_linear_122_130)" fill-opacity="0.6"/>
<path d="M54.5 507.511C55.9953 507.511 57.1273 508.141 57.8959 509.402C58.6785 510.649 59.0698 512.464 59.0698 514.847C59.0698 517.23 58.6785 519.052 57.8959 520.312C57.1273 521.573 55.9953 522.204 54.5 522.204C53.0187 522.204 51.8867 521.573 51.1041 520.312C50.3215 519.052 49.9302 517.23 49.9302 514.847C49.9302 512.478 50.3215 510.663 51.1041 509.402C51.8867 508.141 53.0187 507.511 54.5 507.511ZM51.4185 514.847C51.4185 516.537 51.5723 517.86 51.8797 518.816L56.5334 509.61C56.0442 508.958 55.3664 508.633 54.5 508.633C53.5357 508.633 52.7811 509.145 52.2361 510.171C51.691 511.182 51.4185 512.741 51.4185 514.847ZM54.5 521.061C55.4782 521.061 56.2399 520.555 56.7849 519.543C57.3299 518.518 57.6024 516.953 57.6024 514.847C57.6024 513.059 57.4277 511.674 57.0784 510.69L52.4247 519.98C52.9278 520.7 53.6196 521.061 54.5 521.061Z" fill="url(#paint41_linear_122_130)" fill-opacity="0.6"/>
<path d="M93.4302 293.751C94.9255 293.751 96.0575 294.381 96.8261 295.642C97.6087 296.889 98 298.704 98 301.087C98 303.47 97.6087 305.292 96.8261 306.553C96.0575 307.814 94.9255 308.444 93.4302 308.444C91.9489 308.444 90.8169 307.814 90.0343 306.553C89.2517 305.292 88.8604 303.47 88.8604 301.087C88.8604 298.718 89.2517 296.903 90.0343 295.642C90.8169 294.381 91.9489 293.751 93.4302 293.751ZM90.3487 301.087C90.3487 302.777 90.5024 304.101 90.8099 305.057L95.4636 295.85C94.9744 295.199 94.2966 294.873 93.4302 294.873C92.4659 294.873 91.7113 295.386 91.1663 296.411C90.6212 297.423 90.3487 298.981 90.3487 301.087ZM93.4302 307.301C94.4084 307.301 95.1701 306.795 95.7151 305.784C96.2601 304.759 96.5326 303.193 96.5326 301.087C96.5326 299.3 96.3579 297.914 96.0086 296.931L91.3549 306.22C91.858 306.941 92.5498 307.301 93.4302 307.301Z" fill="url(#paint42_linear_122_130)" fill-opacity="0.6"/>
<path d="M94.6879 330.886H97.7694V331.987H89.7827V330.886H93.3463V319.206L89.9504 321.222L89.3635 320.287L93.556 317.71H94.6879V330.886Z" fill="url(#paint43_linear_122_130)" fill-opacity="0.6"/>
<path d="M94.6879 354.637H97.7694V355.738H89.7827V354.637H93.3463V342.957L89.9504 344.973L89.3635 344.038L93.556 341.461H94.6879V354.637Z" fill="url(#paint44_linear_122_130)" fill-opacity="0.6"/>
<path d="M93.4302 365.004C94.9255 365.004 96.0575 365.635 96.8261 366.895C97.6087 368.142 98 369.957 98 372.34C98 374.723 97.6087 376.545 96.8261 377.806C96.0575 379.067 94.9255 379.697 93.4302 379.697C91.9489 379.697 90.8169 379.067 90.0343 377.806C89.2517 376.545 88.8604 374.723 88.8604 372.34C88.8604 369.971 89.2517 368.156 90.0343 366.895C90.8169 365.635 91.9489 365.004 93.4302 365.004ZM90.3487 372.34C90.3487 374.031 90.5024 375.354 90.8099 376.31L95.4636 367.103C94.9744 366.452 94.2966 366.126 93.4302 366.126C92.4659 366.126 91.7113 366.639 91.1663 367.664C90.6212 368.676 90.3487 370.234 90.3487 372.34ZM93.4302 378.554C94.4084 378.554 95.1701 378.049 95.7151 377.037C96.2601 376.012 96.5326 374.446 96.5326 372.34C96.5326 370.553 96.3579 369.168 96.0086 368.184L91.3549 377.474C91.858 378.194 92.5498 378.554 93.4302 378.554Z" fill="url(#paint45_linear_122_130)" fill-opacity="0.6"/>
<path d="M93.4302 388.755C94.9255 388.755 96.0575 389.386 96.8261 390.646C97.6087 391.893 98 393.708 98 396.091C98 398.474 97.6087 400.296 96.8261 401.557C96.0575 402.818 94.9255 403.448 93.4302 403.448C91.9489 403.448 90.8169 402.818 90.0343 401.557C89.2517 400.296 88.8604 398.474 88.8604 396.091C88.8604 393.722 89.2517 391.907 90.0343 390.646C90.8169 389.386 91.9489 388.755 93.4302 388.755ZM90.3487 396.091C90.3487 397.782 90.5024 399.105 90.8099 400.061L95.4636 390.854C94.9744 390.203 94.2966 389.878 93.4302 389.878C92.4659 389.878 91.7113 390.39 91.1663 391.415C90.6212 392.427 90.3487 393.985 90.3487 396.091ZM93.4302 402.305C94.4084 402.305 95.1701 401.8 95.7151 400.788C96.2601 399.763 96.5326 398.197 96.5326 396.091C96.5326 394.304 96.3579 392.919 96.0086 391.935L91.3549 401.225C91.858 401.945 92.5498 402.305 93.4302 402.305Z" fill="url(#paint46_linear_122_130)" fill-opacity="0.6"/>
<g opacity="0.6">
<path d="M921.93 -30C923.356 -30 924.436 -29.395 925.17 -28.1851C925.916 -26.9885 926.29 -25.2468 926.29 -22.9599C926.29 -20.673 925.916 -18.9246 925.17 -17.7147C924.436 -16.5048 923.356 -15.8998 921.93 -15.8998C920.517 -15.8998 919.437 -16.5048 918.69 -17.7147C917.943 -18.9246 917.57 -20.673 917.57 -22.9599C917.57 -25.2335 917.943 -26.9752 918.69 -28.1851C919.437 -29.395 920.517 -30 921.93 -30ZM918.99 -22.9599C918.99 -21.3378 919.137 -20.068 919.43 -19.1506L923.87 -27.9857C923.403 -28.6106 922.756 -28.923 921.93 -28.923C921.01 -28.923 920.29 -28.4311 919.77 -27.4472C919.25 -26.4766 918.99 -24.9808 918.99 -22.9599ZM921.93 -16.9967C922.863 -16.9967 923.59 -17.482 924.11 -18.4526C924.63 -19.4365 924.89 -20.9389 924.89 -22.9599C924.89 -24.675 924.723 -26.0046 924.39 -26.9486L919.95 -18.0338C920.43 -17.3424 921.09 -16.9967 921.93 -16.9967Z" fill="url(#paint47_linear_122_130)"/>
<path d="M923.13 5.63655H926.07V6.69356H918.45V5.63655H921.85V-5.57181L918.61 -3.63727L918.05 -4.53474L922.05 -7.00776H923.13V5.63655Z" fill="url(#paint48_linear_122_130)"/>
<path d="M921.93 15.5856C923.356 15.5856 924.436 16.1906 925.17 17.4005C925.916 18.5971 926.29 20.3389 926.29 22.6257C926.29 24.9126 925.916 26.661 925.17 27.8709C924.436 29.0808 923.356 29.6858 921.93 29.6858C920.517 29.6858 919.437 29.0808 918.69 27.8709C917.943 26.661 917.57 24.9126 917.57 22.6257C917.57 20.3521 917.943 18.6104 918.69 17.4005C919.437 16.1906 920.517 15.5856 921.93 15.5856ZM918.99 22.6257C918.99 24.2478 919.137 25.5176 919.43 26.435L923.87 17.5999C923.403 16.975 922.756 16.6626 921.93 16.6626C921.01 16.6626 920.29 17.1545 919.77 18.1384C919.25 19.109 918.99 20.6048 918.99 22.6257ZM921.93 28.5889C922.863 28.5889 923.59 28.1036 924.11 27.133C924.63 26.1491 924.89 24.6467 924.89 22.6257C924.89 20.9106 924.723 19.581 924.39 18.637L919.95 27.5518C920.43 28.2432 921.09 28.5889 921.93 28.5889Z" fill="url(#paint49_linear_122_130)"/>
<path d="M923.13 51.2221H926.07V52.2792H918.45V51.2221H921.85V40.0138L918.61 41.9483L918.05 41.0509L922.05 38.5778H923.13V51.2221Z" fill="url(#paint50_linear_122_130)"/>
<path d="M923.13 74.015H926.07V75.072H918.45V74.015H921.85V62.8066L918.61 64.7411L918.05 63.8437L922.05 61.3706H923.13V74.015Z" fill="url(#paint51_linear_122_130)"/>
<path d="M921.93 83.964C923.356 83.964 924.436 84.569 925.17 85.7789C925.916 86.9755 926.29 88.7173 926.29 91.0041C926.29 93.291 925.916 95.0394 925.17 96.2493C924.436 97.4593 923.356 98.0642 921.93 98.0642C920.517 98.0642 919.437 97.4593 918.69 96.2493C917.943 95.0394 917.57 93.291 917.57 91.0041C917.57 88.7306 917.943 86.9888 918.69 85.7789C919.437 84.569 920.517 83.964 921.93 83.964ZM918.99 91.0041C918.99 92.6262 919.137 93.896 919.43 94.8134L923.87 85.9783C923.403 85.3534 922.756 85.041 921.93 85.041C921.01 85.041 920.29 85.5329 919.77 86.5168C919.25 87.4874 918.99 88.9832 918.99 91.0041ZM921.93 96.9673C922.863 96.9673 923.59 96.482 924.11 95.5114C924.63 94.5275 924.89 93.0251 924.89 91.0041C924.89 89.289 924.723 87.9594 924.39 87.0154L919.95 95.9302C920.43 96.6216 921.09 96.9673 921.93 96.9673Z" fill="url(#paint52_linear_122_130)"/>
<path d="M923.13 119.601H926.07V120.658H918.45V119.601H921.85V108.392L918.61 110.327L918.05 109.429L922.05 106.956H923.13V119.601Z" fill="url(#paint53_linear_122_130)"/>
<path d="M921.93 129.55C923.356 129.55 924.436 130.155 925.17 131.365C925.916 132.561 926.29 134.303 926.29 136.59C926.29 138.877 925.916 140.625 925.17 141.835C924.436 143.045 923.356 143.65 921.93 143.65C920.517 143.65 919.437 143.045 918.69 141.835C917.943 140.625 917.57 138.877 917.57 136.59C917.57 134.316 917.943 132.574 918.69 131.365C919.437 130.155 920.517 129.55 921.93 129.55ZM918.99 136.59C918.99 138.212 919.137 139.482 919.43 140.399L923.87 131.564C923.403 130.939 922.756 130.627 921.93 130.627C921.01 130.627 920.29 131.119 919.77 132.102C919.25 133.073 918.99 134.569 918.99 136.59ZM921.93 142.553C922.863 142.553 923.59 142.068 924.11 141.097C924.63 140.113 924.89 138.611 924.89 136.59C924.89 134.875 924.723 133.545 924.39 132.601L919.95 141.516C920.43 142.207 921.09 142.553 921.93 142.553Z" fill="url(#paint54_linear_122_130)"/>
<path d="M921.93 152.342C923.356 152.342 924.436 152.947 925.17 154.157C925.916 155.354 926.29 157.096 926.29 159.383C926.29 161.669 925.916 163.418 925.17 164.628C924.436 165.838 923.356 166.443 921.93 166.443C920.517 166.443 919.437 165.838 918.69 164.628C917.943 163.418 917.57 161.669 917.57 159.383C917.57 157.109 917.943 155.367 918.69 154.157C919.437 152.947 920.517 152.342 921.93 152.342ZM918.99 159.383C918.99 161.005 919.137 162.274 919.43 163.192L923.87 154.357C923.403 153.732 922.756 153.419 921.93 153.419C921.01 153.419 920.29 153.911 919.77 154.895C919.25 155.866 918.99 157.362 918.99 159.383ZM921.93 165.346C922.863 165.346 923.59 164.86 924.11 163.89C924.63 162.906 924.89 161.404 924.89 159.383C924.89 157.667 924.723 156.338 924.39 155.394L919.95 164.309C920.43 165 921.09 165.346 921.93 165.346Z" fill="url(#paint55_linear_122_130)"/>
<path d="M923.13 187.979H926.07V189.036H918.45V187.979H921.85V176.771L918.61 178.705L918.05 177.808L922.05 175.335H923.13V187.979Z" fill="url(#paint56_linear_122_130)"/>
<path d="M921.93 197.928C923.356 197.928 924.436 198.533 925.17 199.743C925.916 200.94 926.29 202.681 926.29 204.968C926.29 207.255 925.916 209.003 925.17 210.213C924.436 211.423 923.356 212.028 921.93 212.028C920.517 212.028 919.437 211.423 918.69 210.213C917.943 209.003 917.57 207.255 917.57 204.968C917.57 202.695 917.943 200.953 918.69 199.743C919.437 198.533 920.517 197.928 921.93 197.928ZM918.99 204.968C918.99 206.59 919.137 207.86 919.43 208.777L923.87 199.942C923.403 199.317 922.756 199.005 921.93 199.005C921.01 199.005 920.29 199.497 919.77 200.481C919.25 201.451 918.99 202.947 918.99 204.968ZM921.93 210.931C922.863 210.931 923.59 210.446 924.11 209.475C924.63 208.492 924.89 206.989 924.89 204.968C924.89 203.253 924.723 201.923 924.39 200.979L919.95 209.894C920.43 210.586 921.09 210.931 921.93 210.931Z" fill="url(#paint57_linear_122_130)"/>
<path d="M923.13 233.565H926.07V234.622H918.45V233.565H921.85V222.356L918.61 224.291L918.05 223.393L922.05 220.92H923.13V233.565Z" fill="url(#paint58_linear_122_130)"/>
<path d="M923.13 256.357H926.07V257.414H918.45V256.357H921.85V245.149L918.61 247.084L918.05 246.186L922.05 243.713H923.13V256.357Z" fill="url(#paint59_linear_122_130)"/>
<path d="M959.07 15.5856C960.497 15.5856 961.577 16.1906 962.31 17.4005C963.057 18.5971 963.43 20.3389 963.43 22.6257C963.43 24.9126 963.057 26.661 962.31 27.8709C961.577 29.0808 960.497 29.6858 959.07 29.6858C957.657 29.6858 956.577 29.0808 955.83 27.8709C955.084 26.661 954.71 24.9126 954.71 22.6257C954.71 20.3521 955.084 18.6104 955.83 17.4005C956.577 16.1906 957.657 15.5856 959.07 15.5856ZM956.13 22.6257C956.13 24.2478 956.277 25.5176 956.57 26.435L961.01 17.5999C960.543 16.975 959.897 16.6626 959.07 16.6626C958.15 16.6626 957.43 17.1545 956.91 18.1384C956.39 19.109 956.13 20.6048 956.13 22.6257ZM959.07 28.5889C960.003 28.5889 960.73 28.1036 961.25 27.133C961.77 26.1491 962.03 24.6467 962.03 22.6257C962.03 20.9106 961.863 19.581 961.53 18.637L957.09 27.5518C957.57 28.2432 958.23 28.5889 959.07 28.5889Z" fill="url(#paint60_linear_122_130)"/>
<path d="M960.27 51.2221H963.21V52.2792H955.59V51.2221H958.99V40.0138L955.75 41.9483L955.19 41.0509L959.19 38.5778H960.27V51.2221Z" fill="url(#paint61_linear_122_130)"/>
<path d="M959.07 61.1712C960.497 61.1712 961.577 61.7762 962.31 62.9861C963.057 64.1827 963.43 65.9245 963.43 68.2113C963.43 70.4982 963.057 72.2466 962.31 73.4565C961.577 74.6665 960.497 75.2714 959.07 75.2714C957.657 75.2714 956.577 74.6665 955.83 73.4565C955.084 72.2466 954.71 70.4982 954.71 68.2113C954.71 65.9378 955.084 64.196 955.83 62.9861C956.577 61.7762 957.657 61.1712 959.07 61.1712ZM956.13 68.2113C956.13 69.8334 956.277 71.1032 956.57 72.0206L961.01 63.1855C960.543 62.5606 959.897 62.2482 959.07 62.2482C958.15 62.2482 957.43 62.7401 956.91 63.724C956.39 64.6946 956.13 66.1904 956.13 68.2113ZM959.07 74.1745C960.003 74.1745 960.73 73.6892 961.25 72.7186C961.77 71.7347 962.03 70.2323 962.03 68.2113C962.03 66.4962 961.863 65.1666 961.53 64.2226L957.09 73.1374C957.57 73.8288 958.23 74.1745 959.07 74.1745Z" fill="url(#paint62_linear_122_130)"/>
<path d="M959.07 83.964C960.497 83.964 961.577 84.569 962.31 85.7789C963.057 86.9755 963.43 88.7173 963.43 91.0041C963.43 93.291 963.057 95.0394 962.31 96.2493C961.577 97.4593 960.497 98.0642 959.07 98.0642C957.657 98.0642 956.577 97.4593 955.83 96.2493C955.084 95.0394 954.71 93.291 954.71 91.0041C954.71 88.7306 955.084 86.9888 955.83 85.7789C956.577 84.569 957.657 83.964 959.07 83.964ZM956.13 91.0041C956.13 92.6262 956.277 93.896 956.57 94.8134L961.01 85.9783C960.543 85.3534 959.897 85.041 959.07 85.041C958.15 85.041 957.43 85.5329 956.91 86.5168C956.39 87.4874 956.13 88.9832 956.13 91.0041ZM959.07 96.9673C960.003 96.9673 960.73 96.482 961.25 95.5114C961.77 94.5275 962.03 93.0251 962.03 91.0041C962.03 89.289 961.863 87.9594 961.53 87.0154L957.09 95.9302C957.57 96.6216 958.23 96.9673 959.07 96.9673Z" fill="url(#paint63_linear_122_130)"/>
<path d="M960.27 119.601H963.21V120.658H955.59V119.601H958.99V108.392L955.75 110.327L955.19 109.429L959.19 106.956H960.27V119.601Z" fill="url(#paint64_linear_122_130)"/>
<path d="M959.07 129.55C960.497 129.55 961.577 130.155 962.31 131.365C963.057 132.561 963.43 134.303 963.43 136.59C963.43 138.877 963.057 140.625 962.31 141.835C961.577 143.045 960.497 143.65 959.07 143.65C957.657 143.65 956.577 143.045 955.83 141.835C955.084 140.625 954.71 138.877 954.71 136.59C954.71 134.316 955.084 132.574 955.83 131.365C956.577 130.155 957.657 129.55 959.07 129.55ZM956.13 136.59C956.13 138.212 956.277 139.482 956.57 140.399L961.01 131.564C960.543 130.939 959.897 130.627 959.07 130.627C958.15 130.627 957.43 131.119 956.91 132.102C956.39 133.073 956.13 134.569 956.13 136.59ZM959.07 142.553C960.003 142.553 960.73 142.068 961.25 141.097C961.77 140.113 962.03 138.611 962.03 136.59C962.03 134.875 961.863 133.545 961.53 132.601L957.09 141.516C957.57 142.207 958.23 142.553 959.07 142.553Z" fill="url(#paint65_linear_122_130)"/>
<path d="M960.27 165.186H963.21V166.243H955.59V165.186H958.99V153.978L955.75 155.912L955.19 155.015L959.19 152.542H960.27V165.186Z" fill="url(#paint66_linear_122_130)"/>
<path d="M959.07 175.135C960.497 175.135 961.577 175.74 962.31 176.95C963.057 178.147 963.43 179.888 963.43 182.175C963.43 184.462 963.057 186.211 962.31 187.421C961.577 188.63 960.497 189.235 959.07 189.235C957.657 189.235 956.577 188.63 955.83 187.421C955.084 186.211 954.71 184.462 954.71 182.175C954.71 179.902 955.084 178.16 955.83 176.95C956.577 175.74 957.657 175.135 959.07 175.135ZM956.13 182.175C956.13 183.797 956.277 185.067 956.57 185.985L961.01 177.15C960.543 176.525 959.897 176.212 959.07 176.212C958.15 176.212 957.43 176.704 956.91 177.688C956.39 178.659 956.13 180.154 956.13 182.175ZM959.07 188.139C960.003 188.139 960.73 187.653 961.25 186.683C961.77 185.699 962.03 184.196 962.03 182.175C962.03 180.46 961.863 179.131 961.53 178.187L957.09 187.101C957.57 187.793 958.23 188.139 959.07 188.139Z" fill="url(#paint67_linear_122_130)"/>
<path d="M959.07 197.928C960.497 197.928 961.577 198.533 962.31 199.743C963.057 200.94 963.43 202.681 963.43 204.968C963.43 207.255 963.057 209.003 962.31 210.213C961.577 211.423 960.497 212.028 959.07 212.028C957.657 212.028 956.577 211.423 955.83 210.213C955.084 209.003 954.71 207.255 954.71 204.968C954.71 202.695 955.084 200.953 955.83 199.743C956.577 198.533 957.657 197.928 959.07 197.928ZM956.13 204.968C956.13 206.59 956.277 207.86 956.57 208.777L961.01 199.942C960.543 199.317 959.897 199.005 959.07 199.005C958.15 199.005 957.43 199.497 956.91 200.481C956.39 201.451 956.13 202.947 956.13 204.968ZM959.07 210.931C960.003 210.931 960.73 210.446 961.25 209.475C961.77 208.492 962.03 206.989 962.03 204.968C962.03 203.253 961.863 201.923 961.53 200.979L957.09 209.894C957.57 210.586 958.23 210.931 959.07 210.931Z" fill="url(#paint68_linear_122_130)"/>
<path d="M960.27 233.565H963.21V234.622H955.59V233.565H958.99V222.356L955.75 224.291L955.19 223.393L959.19 220.92H960.27V233.565Z" fill="url(#paint69_linear_122_130)"/>
<path d="M959.07 243.514C960.497 243.514 961.577 244.119 962.31 245.329C963.057 246.525 963.43 248.267 963.43 250.554C963.43 252.841 963.057 254.589 962.31 255.799C961.577 257.009 960.497 257.614 959.07 257.614C957.657 257.614 956.577 257.009 955.83 255.799C955.084 254.589 954.71 252.841 954.71 250.554C954.71 248.28 955.084 246.538 955.83 245.329C956.577 244.119 957.657 243.514 959.07 243.514ZM956.13 250.554C956.13 252.176 956.277 253.446 956.57 254.363L961.01 245.528C960.543 244.903 959.897 244.591 959.07 244.591C958.15 244.591 957.43 245.083 956.91 246.066C956.39 247.037 956.13 248.533 956.13 250.554ZM959.07 256.517C960.003 256.517 960.73 256.032 961.25 255.061C961.77 254.077 962.03 252.575 962.03 250.554C962.03 248.839 961.863 247.509 961.53 246.565L957.09 255.48C957.57 256.171 958.23 256.517 959.07 256.517Z" fill="url(#paint70_linear_122_130)"/>
<path d="M960.27 279.15H963.21V280.207H955.59V279.15H958.99V267.942L955.75 269.876L955.19 268.979L959.19 266.506H960.27V279.15Z" fill="url(#paint71_linear_122_130)"/>
<path d="M960.27 301.943H963.21V303H955.59V301.943H958.99V290.735L955.75 292.669L955.19 291.772L959.19 289.299H960.27V301.943Z" fill="url(#paint72_linear_122_130)"/>
<path d="M903.36 38.3784C904.786 38.3784 905.866 38.9834 906.599 40.1933C907.346 41.3899 907.719 43.1317 907.719 45.4185C907.719 47.7054 907.346 49.4538 906.599 50.6637C905.866 51.8736 904.786 52.4786 903.36 52.4786C901.946 52.4786 900.867 51.8736 900.12 50.6637C899.373 49.4538 899 47.7054 899 45.4185C899 43.145 899.373 41.4032 900.12 40.1933C900.867 38.9834 901.946 38.3784 903.36 38.3784ZM900.42 45.4185C900.42 47.0406 900.567 48.3104 900.86 49.2278L905.3 40.3927C904.833 39.7678 904.186 39.4554 903.36 39.4554C902.44 39.4554 901.72 39.9473 901.2 40.9312C900.68 41.9018 900.42 43.3976 900.42 45.4185ZM903.36 51.3817C904.293 51.3817 905.02 50.8964 905.54 49.9258C906.06 48.9419 906.319 47.4395 906.319 45.4185C906.319 43.7034 906.153 42.3738 905.82 41.4298L901.38 50.3446C901.86 51.036 902.52 51.3817 903.36 51.3817Z" fill="url(#paint73_linear_122_130)"/>
<path d="M903.36 61.1712C904.786 61.1712 905.866 61.7762 906.599 62.9861C907.346 64.1827 907.719 65.9245 907.719 68.2113C907.719 70.4982 907.346 72.2466 906.599 73.4565C905.866 74.6665 904.786 75.2714 903.36 75.2714C901.946 75.2714 900.867 74.6665 900.12 73.4565C899.373 72.2466 899 70.4982 899 68.2113C899 65.9378 899.373 64.196 900.12 62.9861C900.867 61.7762 901.946 61.1712 903.36 61.1712ZM900.42 68.2113C900.42 69.8334 900.567 71.1032 900.86 72.0206L905.3 63.1855C904.833 62.5606 904.186 62.2482 903.36 62.2482C902.44 62.2482 901.72 62.7401 901.2 63.724C900.68 64.6946 900.42 66.1904 900.42 68.2113ZM903.36 74.1745C904.293 74.1745 905.02 73.6892 905.54 72.7186C906.06 71.7347 906.319 70.2323 906.319 68.2113C906.319 66.4962 906.153 65.1666 905.82 64.2226L901.38 73.1374C901.86 73.8288 902.52 74.1745 903.36 74.1745Z" fill="url(#paint74_linear_122_130)"/>
<path d="M904.56 96.8078H907.499V97.8648H899.88V96.8078H903.28V85.5994L900.04 87.5339L899.48 86.6365L903.48 84.1635H904.56V96.8078Z" fill="url(#paint75_linear_122_130)"/>
<path d="M903.36 106.757C904.786 106.757 905.866 107.362 906.599 108.572C907.346 109.768 907.719 111.51 907.719 113.797C907.719 116.084 907.346 117.832 906.599 119.042C905.866 120.252 904.786 120.857 903.36 120.857C901.946 120.857 900.867 120.252 900.12 119.042C899.373 117.832 899 116.084 899 113.797C899 111.523 899.373 109.782 900.12 108.572C900.867 107.362 901.946 106.757 903.36 106.757ZM900.42 113.797C900.42 115.419 900.567 116.689 900.86 117.606L905.3 108.771C904.833 108.146 904.186 107.834 903.36 107.834C902.44 107.834 901.72 108.326 901.2 109.31C900.68 110.28 900.42 111.776 900.42 113.797ZM903.36 119.76C904.293 119.76 905.02 119.275 905.54 118.304C906.06 117.32 906.319 115.818 906.319 113.797C906.319 112.082 906.153 110.752 905.82 109.808L901.38 118.723C901.86 119.414 902.52 119.76 903.36 119.76Z" fill="url(#paint76_linear_122_130)"/>
<path d="M904.56 142.393H907.499V143.45H899.88V142.393H903.28V131.185L900.04 133.12L899.48 132.222L903.48 129.749H904.56V142.393Z" fill="url(#paint77_linear_122_130)"/>
<path d="M904.56 165.186H907.499V166.243H899.88V165.186H903.28V153.978L900.04 155.912L899.48 155.015L903.48 152.542H904.56V165.186Z" fill="url(#paint78_linear_122_130)"/>
<path d="M941.7 5.63655H944.64V6.69356H937.02V5.63655H940.42V-5.57181L937.18 -3.63727L936.62 -4.53474L940.62 -7.00776H941.7V5.63655Z" fill="url(#paint79_linear_122_130)"/>
<path d="M940.5 15.5856C941.927 15.5856 943.006 16.1906 943.74 17.4005C944.486 18.5971 944.86 20.3389 944.86 22.6257C944.86 24.9126 944.486 26.661 943.74 27.8709C943.006 29.0808 941.927 29.6858 940.5 29.6858C939.087 29.6858 938.007 29.0808 937.26 27.8709C936.514 26.661 936.14 24.9126 936.14 22.6257C936.14 20.3521 936.514 18.6104 937.26 17.4005C938.007 16.1906 939.087 15.5856 940.5 15.5856ZM937.56 22.6257C937.56 24.2478 937.707 25.5176 938 26.435L942.44 17.5999C941.973 16.975 941.327 16.6626 940.5 16.6626C939.58 16.6626 938.86 17.1545 938.34 18.1384C937.82 19.109 937.56 20.6048 937.56 22.6257ZM940.5 28.5889C941.433 28.5889 942.16 28.1036 942.68 27.133C943.2 26.1491 943.46 24.6467 943.46 22.6257C943.46 20.9106 943.293 19.581 942.96 18.637L938.52 27.5518C939 28.2432 939.66 28.5889 940.5 28.5889Z" fill="url(#paint80_linear_122_130)"/>
<path d="M941.7 51.2221H944.64V52.2792H937.02V51.2221H940.42V40.0138L937.18 41.9483L936.62 41.0509L940.62 38.5778H941.7V51.2221Z" fill="url(#paint81_linear_122_130)"/>
<path d="M941.7 74.015H944.64V75.072H937.02V74.015H940.42V62.8066L937.18 64.7411L936.62 63.8437L940.62 61.3706H941.7V74.015Z" fill="url(#paint82_linear_122_130)"/>
<path d="M940.5 83.964C941.927 83.964 943.006 84.569 943.74 85.7789C944.486 86.9755 944.86 88.7173 944.86 91.0041C944.86 93.291 944.486 95.0394 943.74 96.2493C943.006 97.4593 941.927 98.0642 940.5 98.0642C939.087 98.0642 938.007 97.4593 937.26 96.2493C936.514 95.0394 936.14 93.291 936.14 91.0041C936.14 88.7306 936.514 86.9888 937.26 85.7789C938.007 84.569 939.087 83.964 940.5 83.964ZM937.56 91.0041C937.56 92.6262 937.707 93.896 938 94.8134L942.44 85.9783C941.973 85.3534 941.327 85.041 940.5 85.041C939.58 85.041 938.86 85.5329 938.34 86.5168C937.82 87.4874 937.56 88.9832 937.56 91.0041ZM940.5 96.9673C941.433 96.9673 942.16 96.482 942.68 95.5114C943.2 94.5275 943.46 93.0251 943.46 91.0041C943.46 89.289 943.293 87.9594 942.96 87.0154L938.52 95.9302C939 96.6216 939.66 96.9673 940.5 96.9673Z" fill="url(#paint83_linear_122_130)"/>
<path d="M941.7 119.601H944.64V120.658H937.02V119.601H940.42V108.392L937.18 110.327L936.62 109.429L940.62 106.956H941.7V119.601Z" fill="url(#paint84_linear_122_130)"/>
<path d="M941.7 142.393H944.64V143.45H937.02V142.393H940.42V131.185L937.18 133.12L936.62 132.222L940.62 129.749H941.7V142.393Z" fill="url(#paint85_linear_122_130)"/>
<path d="M940.5 152.342C941.927 152.342 943.006 152.947 943.74 154.157C944.486 155.354 944.86 157.096 944.86 159.383C944.86 161.669 944.486 163.418 943.74 164.628C943.006 165.838 941.927 166.443 940.5 166.443C939.087 166.443 938.007 165.838 937.26 164.628C936.514 163.418 936.14 161.669 936.14 159.383C936.14 157.109 936.514 155.367 937.26 154.157C938.007 152.947 939.087 152.342 940.5 152.342ZM937.56 159.383C937.56 161.005 937.707 162.274 938 163.192L942.44 154.357C941.973 153.732 941.327 153.419 940.5 153.419C939.58 153.419 938.86 153.911 938.34 154.895C937.82 155.866 937.56 157.362 937.56 159.383ZM940.5 165.346C941.433 165.346 942.16 164.86 942.68 163.89C943.2 162.906 943.46 161.404 943.46 159.383C943.46 157.667 943.293 156.338 942.96 155.394L938.52 164.309C939 165 939.66 165.346 940.5 165.346Z" fill="url(#paint86_linear_122_130)"/>
<path d="M941.7 187.979H944.64V189.036H937.02V187.979H940.42V176.771L937.18 178.705L936.62 177.808L940.62 175.335H941.7V187.979Z" fill="url(#paint87_linear_122_130)"/>
<path d="M940.5 197.928C941.927 197.928 943.006 198.533 943.74 199.743C944.486 200.94 944.86 202.681 944.86 204.968C944.86 207.255 944.486 209.003 943.74 210.213C943.006 211.423 941.927 212.028 940.5 212.028C939.087 212.028 938.007 211.423 937.26 210.213C936.514 209.003 936.14 207.255 936.14 204.968C936.14 202.695 936.514 200.953 937.26 199.743C938.007 198.533 939.087 197.928 940.5 197.928ZM937.56 204.968C937.56 206.59 937.707 207.86 938 208.777L942.44 199.942C941.973 199.317 941.327 199.005 940.5 199.005C939.58 199.005 938.86 199.497 938.34 200.481C937.82 201.451 937.56 202.947 937.56 204.968ZM940.5 210.931C941.433 210.931 942.16 210.446 942.68 209.475C943.2 208.492 943.46 206.989 943.46 204.968C943.46 203.253 943.293 201.923 942.96 200.979L938.52 209.894C939 210.586 939.66 210.931 940.5 210.931Z" fill="url(#paint88_linear_122_130)"/>
<path d="M977.64 -7.2072C979.067 -7.2072 980.147 -6.60224 980.88 -5.39232C981.627 -4.1957 982 -2.45395 982 -0.167072C982 2.1198 981.627 3.86821 980.88 5.07812C980.147 6.28804 979.067 6.893 977.64 6.893C976.227 6.893 975.147 6.28804 974.401 5.07812C973.654 3.86821 973.281 2.1198 973.281 -0.167072C973.281 -2.44065 973.654 -4.1824 974.401 -5.39232C975.147 -6.60224 976.227 -7.2072 977.64 -7.2072ZM974.701 -0.167072C974.701 1.45502 974.847 2.72477 975.14 3.64218L979.58 -5.19288C979.114 -5.81779 978.467 -6.13024 977.64 -6.13024C976.72 -6.13024 976 -5.63829 975.48 -4.6544C974.96 -3.68381 974.701 -2.18803 974.701 -0.167072ZM977.64 5.7961C978.574 5.7961 979.3 5.3108 979.82 4.34021C980.34 3.35632 980.6 1.85389 980.6 -0.167072C980.6 -1.88223 980.433 -3.21181 980.1 -4.15581L975.66 4.75902C976.14 5.45041 976.8 5.7961 977.64 5.7961Z" fill="url(#paint89_linear_122_130)"/>
<path d="M978.84 28.4293H981.78V29.4864H974.161V28.4293H977.56V17.221L974.321 19.1555L973.761 18.2581L977.76 15.785H978.84V28.4293Z" fill="url(#paint90_linear_122_130)"/>
<path d="M978.84 51.2221H981.78V52.2792H974.161V51.2221H977.56V40.0138L974.321 41.9483L973.761 41.0509L977.76 38.5778H978.84V51.2221Z" fill="url(#paint91_linear_122_130)"/>
<path d="M977.64 61.1712C979.067 61.1712 980.147 61.7762 980.88 62.9861C981.627 64.1827 982 65.9245 982 68.2113C982 70.4982 981.627 72.2466 980.88 73.4565C980.147 74.6665 979.067 75.2714 977.64 75.2714C976.227 75.2714 975.147 74.6665 974.401 73.4565C973.654 72.2466 973.281 70.4982 973.281 68.2113C973.281 65.9378 973.654 64.196 974.401 62.9861C975.147 61.7762 976.227 61.1712 977.64 61.1712ZM974.701 68.2113C974.701 69.8334 974.847 71.1032 975.14 72.0206L979.58 63.1855C979.114 62.5606 978.467 62.2482 977.64 62.2482C976.72 62.2482 976 62.7401 975.48 63.724C974.96 64.6946 974.701 66.1904 974.701 68.2113ZM977.64 74.1745C978.574 74.1745 979.3 73.6892 979.82 72.7186C980.34 71.7347 980.6 70.2323 980.6 68.2113C980.6 66.4962 980.433 65.1666 980.1 64.2226L975.66 73.1374C976.14 73.8288 976.8 74.1745 977.64 74.1745Z" fill="url(#paint92_linear_122_130)"/>
<path d="M977.64 83.964C979.067 83.964 980.147 84.569 980.88 85.7789C981.627 86.9755 982 88.7173 982 91.0041C982 93.291 981.627 95.0394 980.88 96.2493C980.147 97.4593 979.067 98.0642 977.64 98.0642C976.227 98.0642 975.147 97.4593 974.401 96.2493C973.654 95.0394 973.281 93.291 973.281 91.0041C973.281 88.7306 973.654 86.9888 974.401 85.7789C975.147 84.569 976.227 83.964 977.64 83.964ZM974.701 91.0041C974.701 92.6262 974.847 93.896 975.14 94.8134L979.58 85.9783C979.114 85.3534 978.467 85.041 977.64 85.041C976.72 85.041 976 85.5329 975.48 86.5168C974.96 87.4874 974.701 88.9832 974.701 91.0041ZM977.64 96.9673C978.574 96.9673 979.3 96.482 979.82 95.5114C980.34 94.5275 980.6 93.0251 980.6 91.0041C980.6 89.289 980.433 87.9594 980.1 87.0154L975.66 95.9302C976.14 96.6216 976.8 96.9673 977.64 96.9673Z" fill="url(#paint93_linear_122_130)"/>
</g>
</g>
<defs>
<filter id="filter0_f_122_130" x="-556.19" y="-716.19" width="2141.38" height="1500.38" filterUnits="userSpaceOnUse" color-interpolation-filters="sRGB">
<feFlood flood-opacity="0" result="BackgroundImageFix"/>
<feBlend mode="normal" in="SourceGraphic" in2="BackgroundImageFix" result="shape"/>
<feGaussianBlur stdDeviation="200.095" result="effect1_foregroundBlur_122_130"/>
</filter>
<linearGradient id="paint0_linear_122_130" x1="54.5" y1="270" x2="54.5" y2="581.381" gradientUnits="userSpaceOnUse">
<stop stop-color="#F7DD43"/>
<stop offset="1" stop-color="#F7DD43" stop-opacity="0"/>
</linearGradient>
<linearGradient id="paint1_linear_122_130" x1="54.5" y1="270" x2="54.5" y2="581.381" gradientUnits="userSpaceOnUse">
<stop stop-color="#F7DD43"/>
<stop offset="1" stop-color="#F7DD43" stop-opacity="0"/>
</linearGradient>
<linearGradient id="paint2_linear_122_130" x1="54.5" y1="270" x2="54.5" y2="581.381" gradientUnits="userSpaceOnUse">
<stop stop-color="#F7DD43"/>
<stop offset="1" stop-color="#F7DD43" stop-opacity="0"/>
</linearGradient>
<linearGradient id="paint3_linear_122_130" x1="54.5" y1="270" x2="54.5" y2="581.381" gradientUnits="userSpaceOnUse">
<stop stop-color="#F7DD43"/>
<stop offset="1" stop-color="#F7DD43" stop-opacity="0"/>
</linearGradient>
<linearGradient id="paint4_linear_122_130" x1="54.5" y1="270" x2="54.5" y2="581.381" gradientUnits="userSpaceOnUse">
<stop stop-color="#F7DD43"/>
<stop offset="1" stop-color="#F7DD43" stop-opacity="0"/>
</linearGradient>
<linearGradient id="paint5_linear_122_130" x1="54.5" y1="270" x2="54.5" y2="581.381" gradientUnits="userSpaceOnUse">
<stop stop-color="#F7DD43"/>
<stop offset="1" stop-color="#F7DD43" stop-opacity="0"/>
</linearGradient>
<linearGradient id="paint6_linear_122_130" x1="54.5" y1="270" x2="54.5" y2="581.381" gradientUnits="userSpaceOnUse">
<stop stop-color="#F7DD43"/>
<stop offset="1" stop-color="#F7DD43" stop-opacity="0"/>
</linearGradient>
<linearGradient id="paint7_linear_122_130" x1="54.5" y1="270" x2="54.5" y2="581.381" gradientUnits="userSpaceOnUse">
<stop stop-color="#F7DD43"/>
<stop offset="1" stop-color="#F7DD43" stop-opacity="0"/>
</linearGradient>
<linearGradient id="paint8_linear_122_130" x1="54.5" y1="270" x2="54.5" y2="581.381" gradientUnits="userSpaceOnUse">
<stop stop-color="#F7DD43"/>
<stop offset="1" stop-color="#F7DD43" stop-opacity="0"/>
</linearGradient>
<linearGradient id="paint9_linear_122_130" x1="54.5" y1="270" x2="54.5" y2="581.381" gradientUnits="userSpaceOnUse">
<stop stop-color="#F7DD43"/>
<stop offset="1" stop-color="#F7DD43" stop-opacity="0"/>
</linearGradient>
<linearGradient id="paint10_linear_122_130" x1="54.5" y1="270" x2="54.5" y2="581.381" gradientUnits="userSpaceOnUse">
<stop stop-color="#F7DD43"/>
<stop offset="1" stop-color="#F7DD43" stop-opacity="0"/>
</linearGradient>
<linearGradient id="paint11_linear_122_130" x1="54.5" y1="270" x2="54.5" y2="581.381" gradientUnits="userSpaceOnUse">
<stop stop-color="#F7DD43"/>
<stop offset="1" stop-color="#F7DD43" stop-opacity="0"/>
</linearGradient>
<linearGradient id="paint12_linear_122_130" x1="54.5" y1="270" x2="54.5" y2="581.381" gradientUnits="userSpaceOnUse">
<stop stop-color="#F7DD43"/>
<stop offset="1" stop-color="#F7DD43" stop-opacity="0"/>
</linearGradient>
<linearGradient id="paint13_linear_122_130" x1="54.5" y1="270" x2="54.5" y2="581.381" gradientUnits="userSpaceOnUse">
<stop stop-color="#F7DD43"/>
<stop offset="1" stop-color="#F7DD43" stop-opacity="0"/>
</linearGradient>
<linearGradient id="paint14_linear_122_130" x1="54.5" y1="270" x2="54.5" y2="581.381" gradientUnits="userSpaceOnUse">
<stop stop-color="#F7DD43"/>
<stop offset="1" stop-color="#F7DD43" stop-opacity="0"/>
</linearGradient>
<linearGradient id="paint15_linear_122_130" x1="54.5" y1="270" x2="54.5" y2="581.381" gradientUnits="userSpaceOnUse">
<stop stop-color="#F7DD43"/>
<stop offset="1" stop-color="#F7DD43" stop-opacity="0"/>
</linearGradient>
<linearGradient id="paint16_linear_122_130" x1="54.5" y1="270" x2="54.5" y2="581.381" gradientUnits="userSpaceOnUse">
<stop stop-color="#F7DD43"/>
<stop offset="1" stop-color="#F7DD43" stop-opacity="0"/>
</linearGradient>
<linearGradient id="paint17_linear_122_130" x1="54.5" y1="270" x2="54.5" y2="581.381" gradientUnits="userSpaceOnUse">
<stop stop-color="#F7DD43"/>
<stop offset="1" stop-color="#F7DD43" stop-opacity="0"/>
</linearGradient>
<linearGradient id="paint18_linear_122_130" x1="54.5" y1="270" x2="54.5" y2="581.381" gradientUnits="userSpaceOnUse">
<stop stop-color="#F7DD43"/>
<stop offset="1" stop-color="#F7DD43" stop-opacity="0"/>
</linearGradient>
<linearGradient id="paint19_linear_122_130" x1="54.5" y1="270" x2="54.5" y2="581.381" gradientUnits="userSpaceOnUse">
<stop stop-color="#F7DD43"/>
<stop offset="1" stop-color="#F7DD43" stop-opacity="0"/>
</linearGradient>
<linearGradient id="paint20_linear_122_130" x1="54.5" y1="270" x2="54.5" y2="581.381" gradientUnits="userSpaceOnUse">
<stop stop-color="#F7DD43"/>
<stop offset="1" stop-color="#F7DD43" stop-opacity="0"/>
</linearGradient>
<linearGradient id="paint21_linear_122_130" x1="54.5" y1="270" x2="54.5" y2="581.381" gradientUnits="userSpaceOnUse">
<stop stop-color="#F7DD43"/>
<stop offset="1" stop-color="#F7DD43" stop-opacity="0"/>
</linearGradient>
<linearGradient id="paint22_linear_122_130" x1="54.5" y1="270" x2="54.5" y2="581.381" gradientUnits="userSpaceOnUse">
<stop stop-color="#F7DD43"/>
<stop offset="1" stop-color="#F7DD43" stop-opacity="0"/>
</linearGradient>
<linearGradient id="paint23_linear_122_130" x1="54.5" y1="270" x2="54.5" y2="581.381" gradientUnits="userSpaceOnUse">
<stop stop-color="#F7DD43"/>
<stop offset="1" stop-color="#F7DD43" stop-opacity="0"/>
</linearGradient>
<linearGradient id="paint24_linear_122_130" x1="54.5" y1="270" x2="54.5" y2="581.381" gradientUnits="userSpaceOnUse">
<stop stop-color="#F7DD43"/>
<stop offset="1" stop-color="#F7DD43" stop-opacity="0"/>
</linearGradient>
<linearGradient id="paint25_linear_122_130" x1="54.5" y1="270" x2="54.5" y2="581.381" gradientUnits="userSpaceOnUse">
<stop stop-color="#F7DD43"/>
<stop offset="1" stop-color="#F7DD43" stop-opacity="0"/>
</linearGradient>
<linearGradient id="paint26_linear_122_130" x1="54.5" y1="270" x2="54.5" y2="581.381" gradientUnits="userSpaceOnUse">
<stop stop-color="#F7DD43"/>
<stop offset="1" stop-color="#F7DD43" stop-opacity="0"/>
</linearGradient>
<linearGradient id="paint27_linear_122_130" x1="54.5" y1="270" x2="54.5" y2="581.381" gradientUnits="userSpaceOnUse">
<stop stop-color="#F7DD43"/>
<stop offset="1" stop-color="#F7DD43" stop-opacity="0"/>
</linearGradient>
<linearGradient id="paint28_linear_122_130" x1="54.5" y1="270" x2="54.5" y2="581.381" gradientUnits="userSpaceOnUse">
<stop stop-color="#F7DD43"/>
<stop offset="1" stop-color="#F7DD43" stop-opacity="0"/>
</linearGradient>
<linearGradient id="paint29_linear_122_130" x1="54.5" y1="270" x2="54.5" y2="581.381" gradientUnits="userSpaceOnUse">
<stop stop-color="#F7DD43"/>
<stop offset="1" stop-color="#F7DD43" stop-opacity="0"/>
</linearGradient>
<linearGradient id="paint30_linear_122_130" x1="54.5" y1="270" x2="54.5" y2="581.381" gradientUnits="userSpaceOnUse">
<stop stop-color="#F7DD43"/>
<stop offset="1" stop-color="#F7DD43" stop-opacity="0"/>
</linearGradient>
<linearGradient id="paint31_linear_122_130" x1="54.5" y1="270" x2="54.5" y2="581.381" gradientUnits="userSpaceOnUse">
<stop stop-color="#F7DD43"/>
<stop offset="1" stop-color="#F7DD43" stop-opacity="0"/>
</linearGradient>
<linearGradient id="paint32_linear_122_130" x1="54.5" y1="270" x2="54.5" y2="581.381" gradientUnits="userSpaceOnUse">
<stop stop-color="#F7DD43"/>
<stop offset="1" stop-color="#F7DD43" stop-opacity="0"/>
</linearGradient>
<linearGradient id="paint33_linear_122_130" x1="54.5" y1="270" x2="54.5" y2="581.381" gradientUnits="userSpaceOnUse">
<stop stop-color="#F7DD43"/>
<stop offset="1" stop-color="#F7DD43" stop-opacity="0"/>
</linearGradient>
<linearGradient id="paint34_linear_122_130" x1="54.5" y1="270" x2="54.5" y2="581.381" gradientUnits="userSpaceOnUse">
<stop stop-color="#F7DD43"/>
<stop offset="1" stop-color="#F7DD43" stop-opacity="0"/>
</linearGradient>
<linearGradient id="paint35_linear_122_130" x1="54.5" y1="270" x2="54.5" y2="581.381" gradientUnits="userSpaceOnUse">
<stop stop-color="#F7DD43"/>
<stop offset="1" stop-color="#F7DD43" stop-opacity="0"/>
</linearGradient>
<linearGradient id="paint36_linear_122_130" x1="54.5" y1="270" x2="54.5" y2="581.381" gradientUnits="userSpaceOnUse">
<stop stop-color="#F7DD43"/>
<stop offset="1" stop-color="#F7DD43" stop-opacity="0"/>
</linearGradient>
<linearGradient id="paint37_linear_122_130" x1="54.5" y1="270" x2="54.5" y2="581.381" gradientUnits="userSpaceOnUse">
<stop stop-color="#F7DD43"/>
<stop offset="1" stop-color="#F7DD43" stop-opacity="0"/>
</linearGradient>
<linearGradient id="paint38_linear_122_130" x1="54.5" y1="270" x2="54.5" y2="581.381" gradientUnits="userSpaceOnUse">
<stop stop-color="#F7DD43"/>
<stop offset="1" stop-color="#F7DD43" stop-opacity="0"/>
</linearGradient>
<linearGradient id="paint39_linear_122_130" x1="54.5" y1="270" x2="54.5" y2="581.381" gradientUnits="userSpaceOnUse">
<stop stop-color="#F7DD43"/>
<stop offset="1" stop-color="#F7DD43" stop-opacity="0"/>
</linearGradient>
<linearGradient id="paint40_linear_122_130" x1="54.5" y1="270" x2="54.5" y2="581.381" gradientUnits="userSpaceOnUse">
<stop stop-color="#F7DD43"/>
<stop offset="1" stop-color="#F7DD43" stop-opacity="0"/>
</linearGradient>
<linearGradient id="paint41_linear_122_130" x1="54.5" y1="270" x2="54.5" y2="581.381" gradientUnits="userSpaceOnUse">
<stop stop-color="#F7DD43"/>
<stop offset="1" stop-color="#F7DD43" stop-opacity="0"/>
</linearGradient>
<linearGradient id="paint42_linear_122_130" x1="54.5" y1="270" x2="54.5" y2="581.381" gradientUnits="userSpaceOnUse">
<stop stop-color="#F7DD43"/>
<stop offset="1" stop-color="#F7DD43" stop-opacity="0"/>
</linearGradient>
<linearGradient id="paint43_linear_122_130" x1="54.5" y1="270" x2="54.5" y2="581.381" gradientUnits="userSpaceOnUse">
<stop stop-color="#F7DD43"/>
<stop offset="1" stop-color="#F7DD43" stop-opacity="0"/>
</linearGradient>
<linearGradient id="paint44_linear_122_130" x1="54.5" y1="270" x2="54.5" y2="581.381" gradientUnits="userSpaceOnUse">
<stop stop-color="#F7DD43"/>
<stop offset="1" stop-color="#F7DD43" stop-opacity="0"/>
</linearGradient>
<linearGradient id="paint45_linear_122_130" x1="54.5" y1="270" x2="54.5" y2="581.381" gradientUnits="userSpaceOnUse">
<stop stop-color="#F7DD43"/>
<stop offset="1" stop-color="#F7DD43" stop-opacity="0"/>
</linearGradient>
<linearGradient id="paint46_linear_122_130" x1="54.5" y1="270" x2="54.5" y2="581.381" gradientUnits="userSpaceOnUse">
<stop stop-color="#F7DD43"/>
<stop offset="1" stop-color="#F7DD43" stop-opacity="0"/>
</linearGradient>
<linearGradient id="paint47_linear_122_130" x1="940.5" y1="-30" x2="940.5" y2="268.818" gradientUnits="userSpaceOnUse">
<stop stop-color="#F7DD43"/>
<stop offset="1" stop-color="#F7DD43" stop-opacity="0"/>
</linearGradient>
<linearGradient id="paint48_linear_122_130" x1="940.5" y1="-30" x2="940.5" y2="268.818" gradientUnits="userSpaceOnUse">
<stop stop-color="#F7DD43"/>
<stop offset="1" stop-color="#F7DD43" stop-opacity="0"/>
</linearGradient>
<linearGradient id="paint49_linear_122_130" x1="940.5" y1="-30" x2="940.5" y2="268.818" gradientUnits="userSpaceOnUse">
<stop stop-color="#F7DD43"/>
<stop offset="1" stop-color="#F7DD43" stop-opacity="0"/>
</linearGradient>
<linearGradient id="paint50_linear_122_130" x1="940.5" y1="-30" x2="940.5" y2="268.818" gradientUnits="userSpaceOnUse">
<stop stop-color="#F7DD43"/>
<stop offset="1" stop-color="#F7DD43" stop-opacity="0"/>
</linearGradient>
<linearGradient id="paint51_linear_122_130" x1="940.5" y1="-30" x2="940.5" y2="268.818" gradientUnits="userSpaceOnUse">
<stop stop-color="#F7DD43"/>
<stop offset="1" stop-color="#F7DD43" stop-opacity="0"/>
</linearGradient>
<linearGradient id="paint52_linear_122_130" x1="940.5" y1="-30" x2="940.5" y2="268.818" gradientUnits="userSpaceOnUse">
<stop stop-color="#F7DD43"/>
<stop offset="1" stop-color="#F7DD43" stop-opacity="0"/>
</linearGradient>
<linearGradient id="paint53_linear_122_130" x1="940.5" y1="-30" x2="940.5" y2="268.818" gradientUnits="userSpaceOnUse">
<stop stop-color="#F7DD43"/>
<stop offset="1" stop-color="#F7DD43" stop-opacity="0"/>
</linearGradient>
<linearGradient id="paint54_linear_122_130" x1="940.5" y1="-30" x2="940.5" y2="268.818" gradientUnits="userSpaceOnUse">
<stop stop-color="#F7DD43"/>
<stop offset="1" stop-color="#F7DD43" stop-opacity="0"/>
</linearGradient>
<linearGradient id="paint55_linear_122_130" x1="940.5" y1="-30" x2="940.5" y2="268.818" gradientUnits="userSpaceOnUse">
<stop stop-color="#F7DD43"/>
<stop offset="1" stop-color="#F7DD43" stop-opacity="0"/>
</linearGradient>
<linearGradient id="paint56_linear_122_130" x1="940.5" y1="-30" x2="940.5" y2="268.818" gradientUnits="userSpaceOnUse">
<stop stop-color="#F7DD43"/>
<stop offset="1" stop-color="#F7DD43" stop-opacity="0"/>
</linearGradient>
<linearGradient id="paint57_linear_122_130" x1="940.5" y1="-30" x2="940.5" y2="268.818" gradientUnits="userSpaceOnUse">
<stop stop-color="#F7DD43"/>
<stop offset="1" stop-color="#F7DD43" stop-opacity="0"/>
</linearGradient>
<linearGradient id="paint58_linear_122_130" x1="940.5" y1="-30" x2="940.5" y2="268.818" gradientUnits="userSpaceOnUse">
<stop stop-color="#F7DD43"/>
<stop offset="1" stop-color="#F7DD43" stop-opacity="0"/>
</linearGradient>
<linearGradient id="paint59_linear_122_130" x1="940.5" y1="-30" x2="940.5" y2="268.818" gradientUnits="userSpaceOnUse">
<stop stop-color="#F7DD43"/>
<stop offset="1" stop-color="#F7DD43" stop-opacity="0"/>
</linearGradient>
<linearGradient id="paint60_linear_122_130" x1="940.5" y1="-30" x2="940.5" y2="268.818" gradientUnits="userSpaceOnUse">
<stop stop-color="#F7DD43"/>
<stop offset="1" stop-color="#F7DD43" stop-opacity="0"/>
</linearGradient>
<linearGradient id="paint61_linear_122_130" x1="940.5" y1="-30" x2="940.5" y2="268.818" gradientUnits="userSpaceOnUse">
<stop stop-color="#F7DD43"/>
<stop offset="1" stop-color="#F7DD43" stop-opacity="0"/>
</linearGradient>
<linearGradient id="paint62_linear_122_130" x1="940.5" y1="-30" x2="940.5" y2="268.818" gradientUnits="userSpaceOnUse">
<stop stop-color="#F7DD43"/>
<stop offset="1" stop-color="#F7DD43" stop-opacity="0"/>
</linearGradient>
<linearGradient id="paint63_linear_122_130" x1="940.5" y1="-30" x2="940.5" y2="268.818" gradientUnits="userSpaceOnUse">
<stop stop-color="#F7DD43"/>
<stop offset="1" stop-color="#F7DD43" stop-opacity="0"/>
</linearGradient>
<linearGradient id="paint64_linear_122_130" x1="940.5" y1="-30" x2="940.5" y2="268.818" gradientUnits="userSpaceOnUse">
<stop stop-color="#F7DD43"/>
<stop offset="1" stop-color="#F7DD43" stop-opacity="0"/>
</linearGradient>
<linearGradient id="paint65_linear_122_130" x1="940.5" y1="-30" x2="940.5" y2="268.818" gradientUnits="userSpaceOnUse">
<stop stop-color="#F7DD43"/>
<stop offset="1" stop-color="#F7DD43" stop-opacity="0"/>
</linearGradient>
<linearGradient id="paint66_linear_122_130" x1="940.5" y1="-30" x2="940.5" y2="268.818" gradientUnits="userSpaceOnUse">
<stop stop-color="#F7DD43"/>
<stop offset="1" stop-color="#F7DD43" stop-opacity="0"/>
</linearGradient>
<linearGradient id="paint67_linear_122_130" x1="940.5" y1="-30" x2="940.5" y2="268.818" gradientUnits="userSpaceOnUse">
<stop stop-color="#F7DD43"/>
<stop offset="1" stop-color="#F7DD43" stop-opacity="0"/>
</linearGradient>
<linearGradient id="paint68_linear_122_130" x1="940.5" y1="-30" x2="940.5" y2="268.818" gradientUnits="userSpaceOnUse">
<stop stop-color="#F7DD43"/>
<stop offset="1" stop-color="#F7DD43" stop-opacity="0"/>
</linearGradient>
<linearGradient id="paint69_linear_122_130" x1="940.5" y1="-30" x2="940.5" y2="268.818" gradientUnits="userSpaceOnUse">
<stop stop-color="#F7DD43"/>
<stop offset="1" stop-color="#F7DD43" stop-opacity="0"/>
</linearGradient>
<linearGradient id="paint70_linear_122_130" x1="940.5" y1="-30" x2="940.5" y2="268.818" gradientUnits="userSpaceOnUse">
<stop stop-color="#F7DD43"/>
<stop offset="1" stop-color="#F7DD43" stop-opacity="0"/>
</linearGradient>
<linearGradient id="paint71_linear_122_130" x1="940.5" y1="-30" x2="940.5" y2="268.818" gradientUnits="userSpaceOnUse">
<stop stop-color="#F7DD43"/>
<stop offset="1" stop-color="#F7DD43" stop-opacity="0"/>
</linearGradient>
<linearGradient id="paint72_linear_122_130" x1="940.5" y1="-30" x2="940.5" y2="268.818" gradientUnits="userSpaceOnUse">
<stop stop-color="#F7DD43"/>
<stop offset="1" stop-color="#F7DD43" stop-opacity="0"/>
</linearGradient>
<linearGradient id="paint73_linear_122_130" x1="940.5" y1="-30" x2="940.5" y2="268.818" gradientUnits="userSpaceOnUse">
<stop stop-color="#F7DD43"/>
<stop offset="1" stop-color="#F7DD43" stop-opacity="0"/>
</linearGradient>
<linearGradient id="paint74_linear_122_130" x1="940.5" y1="-30" x2="940.5" y2="268.818" gradientUnits="userSpaceOnUse">
<stop stop-color="#F7DD43"/>
<stop offset="1" stop-color="#F7DD43" stop-opacity="0"/>
</linearGradient>
<linearGradient id="paint75_linear_122_130" x1="940.5" y1="-30" x2="940.5" y2="268.818" gradientUnits="userSpaceOnUse">
<stop stop-color="#F7DD43"/>
<stop offset="1" stop-color="#F7DD43" stop-opacity="0"/>
</linearGradient>
<linearGradient id="paint76_linear_122_130" x1="940.5" y1="-30" x2="940.5" y2="268.818" gradientUnits="userSpaceOnUse">
<stop stop-color="#F7DD43"/>
<stop offset="1" stop-color="#F7DD43" stop-opacity="0"/>
</linearGradient>
<linearGradient id="paint77_linear_122_130" x1="940.5" y1="-30" x2="940.5" y2="268.818" gradientUnits="userSpaceOnUse">
<stop stop-color="#F7DD43"/>
<stop offset="1" stop-color="#F7DD43" stop-opacity="0"/>
</linearGradient>
<linearGradient id="paint78_linear_122_130" x1="940.5" y1="-30" x2="940.5" y2="268.818" gradientUnits="userSpaceOnUse">
<stop stop-color="#F7DD43"/>
<stop offset="1" stop-color="#F7DD43" stop-opacity="0"/>
</linearGradient>
<linearGradient id="paint79_linear_122_130" x1="940.5" y1="-30" x2="940.5" y2="268.818" gradientUnits="userSpaceOnUse">
<stop stop-color="#F7DD43"/>
<stop offset="1" stop-color="#F7DD43" stop-opacity="0"/>
</linearGradient>
<linearGradient id="paint80_linear_122_130" x1="940.5" y1="-30" x2="940.5" y2="268.818" gradientUnits="userSpaceOnUse">
<stop stop-color="#F7DD43"/>
<stop offset="1" stop-color="#F7DD43" stop-opacity="0"/>
</linearGradient>
<linearGradient id="paint81_linear_122_130" x1="940.5" y1="-30" x2="940.5" y2="268.818" gradientUnits="userSpaceOnUse">
<stop stop-color="#F7DD43"/>
<stop offset="1" stop-color="#F7DD43" stop-opacity="0"/>
</linearGradient>
<linearGradient id="paint82_linear_122_130" x1="940.5" y1="-30" x2="940.5" y2="268.818" gradientUnits="userSpaceOnUse">
<stop stop-color="#F7DD43"/>
<stop offset="1" stop-color="#F7DD43" stop-opacity="0"/>
</linearGradient>
<linearGradient id="paint83_linear_122_130" x1="940.5" y1="-30" x2="940.5" y2="268.818" gradientUnits="userSpaceOnUse">
<stop stop-color="#F7DD43"/>
<stop offset="1" stop-color="#F7DD43" stop-opacity="0"/>
</linearGradient>
<linearGradient id="paint84_linear_122_130" x1="940.5" y1="-30" x2="940.5" y2="268.818" gradientUnits="userSpaceOnUse">
<stop stop-color="#F7DD43"/>
<stop offset="1" stop-color="#F7DD43" stop-opacity="0"/>
</linearGradient>
<linearGradient id="paint85_linear_122_130" x1="940.5" y1="-30" x2="940.5" y2="268.818" gradientUnits="userSpaceOnUse">
<stop stop-color="#F7DD43"/>
<stop offset="1" stop-color="#F7DD43" stop-opacity="0"/>
</linearGradient>
<linearGradient id="paint86_linear_122_130" x1="940.5" y1="-30" x2="940.5" y2="268.818" gradientUnits="userSpaceOnUse">
<stop stop-color="#F7DD43"/>
<stop offset="1" stop-color="#F7DD43" stop-opacity="0"/>
</linearGradient>
<linearGradient id="paint87_linear_122_130" x1="940.5" y1="-30" x2="940.5" y2="268.818" gradientUnits="userSpaceOnUse">
<stop stop-color="#F7DD43"/>
<stop offset="1" stop-color="#F7DD43" stop-opacity="0"/>
</linearGradient>
<linearGradient id="paint88_linear_122_130" x1="940.5" y1="-30" x2="940.5" y2="268.818" gradientUnits="userSpaceOnUse">
<stop stop-color="#F7DD43"/>
<stop offset="1" stop-color="#F7DD43" stop-opacity="0"/>
</linearGradient>
<linearGradient id="paint89_linear_122_130" x1="940.5" y1="-30" x2="940.5" y2="268.818" gradientUnits="userSpaceOnUse">
<stop stop-color="#F7DD43"/>
<stop offset="1" stop-color="#F7DD43" stop-opacity="0"/>
</linearGradient>
<linearGradient id="paint90_linear_122_130" x1="940.5" y1="-30" x2="940.5" y2="268.818" gradientUnits="userSpaceOnUse">
<stop stop-color="#F7DD43"/>
<stop offset="1" stop-color="#F7DD43" stop-opacity="0"/>
</linearGradient>
<linearGradient id="paint91_linear_122_130" x1="940.5" y1="-30" x2="940.5" y2="268.818" gradientUnits="userSpaceOnUse">
<stop stop-color="#F7DD43"/>
<stop offset="1" stop-color="#F7DD43" stop-opacity="0"/>
</linearGradient>
<linearGradient id="paint92_linear_122_130" x1="940.5" y1="-30" x2="940.5" y2="268.818" gradientUnits="userSpaceOnUse">
<stop stop-color="#F7DD43"/>
<stop offset="1" stop-color="#F7DD43" stop-opacity="0"/>
</linearGradient>
<linearGradient id="paint93_linear_122_130" x1="940.5" y1="-30" x2="940.5" y2="268.818" gradientUnits="userSpaceOnUse">
<stop stop-color="#F7DD43"/>
<stop offset="1" stop-color="#F7DD43" stop-opacity="0"/>
</linearGradient>
<clipPath id="clip0_122_130">
<rect width="1024" height="753" fill="white"/>
</clipPath>
</defs>
</svg>
